<?xml version="1.0" standalone="no"?>
<!DOCTYPE svg PUBLIC "-//W3C//DTD SVG 20010904//EN"
 "http://www.w3.org/TR/2001/REC-SVG-20010904/DTD/svg10.dtd">
<svg version="1.0" xmlns="http://www.w3.org/2000/svg"
 width="32.000000pt" height="32.000000pt" viewBox="0 0 32.000000 32.000000"
 preserveAspectRatio="xMidYMid meet">

<g transform="translate(0.000000,32.000000) scale(0.100000,-0.100000)"
fill="#000000" stroke="none">
<path d="M102 273 l-2 -52 -52 -4 -53 -3 53 -2 52 -2 0 -49 0 -50 -52 -4 -53
-3 52 -2 52 -2 4 -52 3 -53 2 53 2 52 49 0 50 0 4 -52 3 -53 2 52 2 52 53 4
52 3 -52 2 -53 2 0 49 0 50 53 4 52 3 -52 2 -52 2 -4 53 -3 52 -2 -52 -2 -53
-49 0 -50 0 -4 53 -3 52 -2 -52z m108 -113 l0 -50 -50 0 -50 0 0 50 0 50 50 0
50 0 0 -50z"/>
<path d="M133 172 c13 -14 14 -21 5 -30 -7 -7 -8 -12 -2 -12 6 0 15 5 21 11 8
8 13 8 17 0 4 -6 12 -11 18 -11 6 0 4 8 -5 18 -13 14 -14 21 -5 30 7 7 8 12 2
12 -5 0 -15 -5 -21 -11 -8 -8 -13 -8 -17 0 -4 6 -12 11 -18 11 -6 0 -4 -8 5
-18z"/>
<path d="M20 279 c9 -15 8 -24 -1 -35 -7 -9 -8 -14 -1 -14 6 0 14 5 17 10 5 8
11 7 21 -1 9 -7 14 -8 14 -1 0 6 -5 14 -11 17 -7 5 -4 14 7 26 9 10 12 19 7
19 -6 0 -14 -8 -18 -17 -6 -17 -7 -17 -19 0 -18 24 -29 21 -16 -4z"/>
<path d="M148 289 c-23 -13 -23 -35 -1 -43 21 -8 48 17 40 38 -7 18 -15 19
-39 5z m25 -30 c-17 -17 -37 -1 -22 17 8 10 15 12 23 4 7 -7 7 -13 -1 -21z"/>
<path d="M55 69 c-4 -6 -12 -8 -19 -6 -6 3 -12 -8 -13 -27 -2 -26 0 -28 8 -13
8 13 14 15 23 8 10 -8 13 -4 13 19 0 33 -2 36 -12 19z"/>
<path d="M257 73 c-4 -3 -7 -17 -7 -30 0 -16 6 -23 20 -23 21 0 45 34 35 50
-7 11 -38 13 -48 3z m31 -20 c-5 -25 -28 -28 -28 -4 0 12 6 21 16 21 9 0 14
-7 12 -17z"/>
</g>
</svg>
